<?xml version="1.0" standalone="no"?>
<!DOCTYPE svg PUBLIC "-//W3C//DTD SVG 20010904//EN"
 "http://www.w3.org/TR/2001/REC-SVG-20010904/DTD/svg10.dtd">
<svg version="1.0" xmlns="http://www.w3.org/2000/svg"
 width="140.000000pt" height="134.000000pt" viewBox="0 0 140.000000 134.000000"
 preserveAspectRatio="xMidYMid meet">

<g transform="translate(0.000000,134.000000) scale(0.100000,-0.100000)"
fill="#000000" stroke="none">
<path d="M392 1020 c-30 -76 -31 -83 -18 -115 9 -22 24 -37 39 -40 28 -7 37
-36 37 -116 0 -49 0 -49 -32 -49 -26 0 -38 8 -58 35 -23 32 -29 34 -75 33 -50
-1 -50 -2 -8 -5 34 -3 48 -11 68 -37 24 -32 25 -38 25 -187 0 -167 3 -179 52
-179 28 0 37 -13 18 -25 -17 -10 -11 -61 8 -78 10 -10 32 -17 49 -17 52 0 79
52 53 101 -10 18 -6 19 112 21 121 1 120 1 -62 10 -102 5 -191 11 -197 13 -10
3 -13 42 -13 150 l0 145 318 -2 317 -3 6 -95 5 -95 2 103 c1 75 -1 102 -10
103 -7 1 -22 2 -33 3 -18 1 -20 9 -23 82 l-3 80 33 15 c52 23 57 54 21 146
l-30 78 -285 3 -285 2 -31 -80z m607 9 c11 -29 21 -56 21 -60 0 -5 -142 -9
-315 -9 -173 0 -315 2 -315 4 0 2 11 29 25 60 l25 56 269 0 268 0 22 -51z m31
-101 c0 -18 -31 -48 -50 -48 -9 0 -25 9 -35 20 l-18 20 -19 -20 c-24 -25 -50
-26 -72 -1 -17 19 -18 19 -37 0 -25 -25 -54 -24 -73 3 l-16 22 -16 -22 c-19
-28 -58 -28 -78 -1 l-14 21 -21 -21 c-26 -26 -45 -27 -71 -1 l-20 20 -20 -20
c-11 -11 -26 -20 -34 -20 -19 0 -46 27 -46 46 0 12 49 14 320 14 238 0 320 -3
320 -12z m-460 -61 c24 9 38 9 56 1 19 -9 33 -9 55 -1 21 8 39 9 60 1 23 -8
35 -7 52 5 19 13 25 13 45 -1 20 -13 29 -13 59 -3 19 7 39 9 43 5 7 -8 13 -98
11 -156 -1 -17 -20 -18 -246 -18 l-245 0 0 83 c0 97 9 112 50 89 24 -14 34
-15 60 -5z m-42 -529 c22 -22 14 -67 -13 -80 -21 -9 -28 -8 -45 7 -36 32 -20
85 25 85 12 0 26 -5 33 -12z"/>
<path d="M746 623 c-4 -5 -35 -8 -69 -8 -57 0 -63 -2 -75 -27 -11 -23 -10 -32
2 -56 17 -33 93 -105 106 -100 5 2 32 25 60 51 64 62 68 106 13 136 -26 13
-27 13 -37 4z m-64 -30 c16 -14 23 -15 38 -5 39 24 80 8 80 -30 0 -20 -77 -98
-96 -98 -15 0 -94 86 -94 101 0 16 30 49 43 49 6 0 19 -8 29 -17z"/>
<path d="M849 475 c-31 -17 -59 -71 -59 -115 0 -66 56 -120 125 -120 78 0 125
51 125 136 0 39 -5 51 -34 80 -30 30 -40 34 -82 34 -27 -1 -61 -7 -75 -15z
m142 -33 c57 -51 38 -147 -34 -177 -43 -18 -82 -9 -117 27 -24 24 -30 38 -30
75 0 36 6 50 29 74 41 41 107 41 152 1z"/>
<path d="M871 404 c-27 -34 -26 -50 4 -79 29 -30 45 -31 79 -4 31 25 34 61 6
89 -28 28 -64 25 -89 -6z m73 -10 c24 -23 20 -53 -9 -66 -21 -9 -28 -8 -45 7
-24 22 -25 33 -3 57 20 22 37 23 57 2z"/>
</g>
</svg>
