<svg width="512" height="512" version="1.1" xmlns="http://www.w3.org/2000/svg" desc="Created with imagetracer.js version 1.2.6" ><path fill="rgb(60,163,229)" stroke="rgb(60,163,229)" stroke-width="1" opacity="0.5019607843137255" d="M 173.5 25 L 188 25.5 L 173.5 26 L 173.5 25 Z " /><path fill="rgb(60,163,229)" stroke="rgb(60,163,229)" stroke-width="1" opacity="0.5019607843137255" d="M 189.5 25 L 204 25.5 L 189.5 26 L 189.5 25 Z " /><path fill="rgb(60,163,229)" stroke="rgb(60,163,229)" stroke-width="1" opacity="0.5019607843137255" d="M 164.5 26 L 170 26.5 L 164.5 27 L 164.5 26 Z " /><path fill="rgb(60,163,229)" stroke="rgb(60,163,229)" stroke-width="1" opacity="0.5019607843137255" d="M 207.5 26 L 213 26.5 L 207.5 27 L 207.5 26 Z " /><path fill="rgb(60,163,229)" stroke="rgb(60,163,229)" stroke-width="1" opacity="0.5019607843137255" d="M 158.5 27 L 163 27.5 L 158.5 28 L 158.5 27 Z " /><path fill="rgb(60,163,229)" stroke="rgb(60,163,229)" stroke-width="1" opacity="0.5019607843137255" d="M 214.5 27 L 219 27.5 L 214.5 28 L 214.5 27 Z " /><path fill="rgb(60,163,229)" stroke="rgb(60,163,229)" stroke-width="1" opacity="0.5019607843137255" d="M 153.5 28 L 157 28.5 L 149.5 30 L 149.5 29 L 153.5 28 Z " /><path fill="rgb(60,163,229)" stroke="rgb(60,163,229)" stroke-width="1" opacity="0.5019607843137255" d="M 220.5 28 L 224 28.5 L 220.5 29 L 220.5 28 Z " /><path fill="rgb(60,163,229)" stroke="rgb(60,163,229)" stroke-width="1" opacity="0.5019607843137255" d="M 225.5 29 L 228 29.5 L 225.5 30 L 225.5 29 Z " /><path fill="rgb(60,163,229)" stroke="rgb(60,163,229)" stroke-width="1" opacity="0.5019607843137255" d="M 145.5 30 L 148 30.5 L 142.5 32 L 142.5 31 L 145.5 30 Z " /><path fill="rgb(60,163,229)" stroke="rgb(60,163,229)" stroke-width="1" opacity="0.5019607843137255" d="M 229.5 30 L 232 30.5 L 229.5 31 L 229.5 30 Z " /><path fill="rgb(60,163,229)" stroke="rgb(60,163,229)" stroke-width="1" opacity="0.5019607843137255" d="M 233.5 31 L 247 35.5 L 245.5 36 L 233.5 32 L 233.5 31 Z " /><path fill="rgb(60,163,229)" stroke="rgb(60,163,229)" stroke-width="1" opacity="0.5019607843137255" d="M 138.5 32 L 141 32.5 L 136.5 34 L 136.5 33 L 138.5 32 Z " /><path fill="rgb(60,163,229)" stroke="rgb(60,163,229)" stroke-width="1" opacity="0.5019607843137255" d="M 130.5 35 L 132 35.5 L 123.5 39 L 123.5 38 L 130.5 35 Z " /><path fill="rgb(60,163,229)" stroke="rgb(60,163,229)" stroke-width="1" opacity="0.5019607843137255" d="M 248.5 36 Q 283 49 306 73.5 Q 322 89.5 333 110.5 L 331 109.5 Q 317 82.5 294.5 64 L 275.5 50 L 248.5 37 L 248.5 36 Z " /><path fill="rgb(60,163,229)" stroke="rgb(60,163,229)" stroke-width="1" opacity="0.5019607843137255" d="M 120.5 39 L 122 39.5 L 109.5 46 L 110.5 44 L 120.5 39 Z " /><path fill="rgb(60,163,229)" stroke="rgb(60,163,229)" stroke-width="1" opacity="0.5019607843137255" d="M 107.5 46 L 106.5 48 Q 82.8 60.8 66 80.5 L 46.5 108 L 47 106.5 Q 60.6 81.6 81.5 64 L 107.5 46 Z " /><path fill="rgb(60,163,229)" stroke="rgb(60,163,229)" stroke-width="1" opacity="0.5019607843137255" d="M 45.5 109 L 45 110.5 L 39.5 122 L 39 120.5 L 45.5 109 Z " /><path fill="rgb(60,163,229)" stroke="rgb(60,163,229)" stroke-width="1" opacity="0.5019607843137255" d="M 333.5 112 L 337 118.5 L 336 118.5 L 333.5 112 Z " /><path fill="rgb(60,163,229)" stroke="rgb(60,163,229)" stroke-width="1" opacity="0.5019607843137255" d="M 337.5 120 L 342 130.5 L 341 130.5 L 337.5 120 Z " /><path fill="rgb(60,163,229)" stroke="rgb(60,163,229)" stroke-width="1" opacity="0.5019607843137255" d="M 38.5 123 L 39 124.5 L 32.5 141 L 32 138.5 L 38.5 123 Z " /><path fill="rgb(60,163,229)" stroke="rgb(60,163,229)" stroke-width="1" opacity="0.5019607843137255" d="M 342.5 132 L 345 139.5 L 344 139.5 L 342.5 132 Z " /><path fill="rgb(60,163,229)" stroke="rgb(60,163,229)" stroke-width="1" opacity="0.5019607843137255" d="M 345.5 141 L 347 146.5 L 346 146.5 L 345.5 141 Z " /><path fill="rgb(60,163,229)" stroke="rgb(60,163,229)" stroke-width="1" opacity="0.5019607843137255" d="M 31.5 142 L 32 144.5 L 30.5 148 L 30 145.5 L 31.5 142 Z " /><path fill="rgb(60,163,229)" stroke="rgb(60,163,229)" stroke-width="1" opacity="0.5019607843137255" d="M 347.5 148 L 348 150.5 L 347 150.5 L 347.5 148 Z " /><path fill="rgb(60,163,229)" stroke="rgb(60,163,229)" stroke-width="1" opacity="0.5019607843137255" d="M 29.5 149 L 30 152.5 L 28.5 157 L 28 153.5 L 29.5 149 Z " /><path fill="rgb(60,163,229)" stroke="rgb(60,163,229)" stroke-width="1" opacity="0.5019607843137255" d="M 348.5 152 L 349 155.5 L 348 155.5 L 348.5 152 Z " /><path fill="rgb(60,163,229)" stroke="rgb(60,163,229)" stroke-width="1" opacity="0.5019607843137255" d="M 349.5 157 L 350 160.5 L 349 160.5 L 349.5 157 Z " /><path fill="rgb(60,163,229)" stroke="rgb(60,163,229)" stroke-width="1" opacity="0.5019607843137255" d="M 27.5 158 L 28 162.5 L 27 162.5 L 27.5 158 Z " /><path fill="rgb(60,163,229)" stroke="rgb(60,163,229)" stroke-width="1" opacity="0.5019607843137255" d="M 350.5 162 L 351 167.5 L 350 167.5 L 350.5 162 Z " /><path fill="rgb(60,163,229)" stroke="rgb(60,163,229)" stroke-width="1" opacity="0.5019607843137255" d="M 26.5 164 L 27 169.5 L 26 169.5 L 26.5 164 Z " /><path fill="rgb(60,163,229)" stroke="rgb(60,163,229)" stroke-width="1" opacity="0.5019607843137255" d="M 351.5 170 L 352 177.5 L 351 177.5 L 351.5 170 Z " /><path fill="rgb(60,163,229)" stroke="rgb(60,163,229)" stroke-width="1" opacity="0.5019607843137255" d="M 25.5 173 L 26 187.5 L 25 187.5 L 25.5 173 Z " /><path fill="rgb(60,163,229)" stroke="rgb(60,163,229)" stroke-width="1" opacity="0.5019607843137255" d="M 352.5 184 L 353 192.5 L 352 192.5 L 352.5 184 Z " /><path fill="rgb(60,163,229)" stroke="rgb(60,163,229)" stroke-width="1" opacity="0.5019607843137255" d="M 25.5 190 L 26 204.5 L 25 204.5 L 25.5 190 Z " /><path fill="rgb(60,163,229)" stroke="rgb(60,163,229)" stroke-width="1" opacity="0.5019607843137255" d="M 351.5 199 L 352 207.5 L 351 207.5 L 351.5 199 Z " /><path fill="rgb(60,163,229)" stroke="rgb(60,163,229)" stroke-width="1" opacity="0.5019607843137255" d="M 26.5 207 L 27 212.5 L 26 212.5 L 26.5 207 Z " /><path fill="rgb(60,163,229)" stroke="rgb(60,163,229)" stroke-width="1" opacity="0.5019607843137255" d="M 350.5 209 L 351 214.5 L 350 214.5 L 350.5 209 Z " /><path fill="rgb(60,163,229)" stroke="rgb(60,163,229)" stroke-width="1" opacity="0.5019607843137255" d="M 27.5 214 L 28 218.5 L 27 218.5 L 27.5 214 Z " /><path fill="rgb(60,163,229)" stroke="rgb(60,163,229)" stroke-width="1" opacity="0.5019607843137255" d="M 349.5 216 L 350 220.5 L 349 220.5 L 349.5 216 Z " /><path fill="rgb(60,163,229)" stroke="rgb(60,163,229)" stroke-width="1" opacity="0.5019607843137255" d="M 28.5 220 L 29 223.5 L 28 223.5 L 28.5 220 Z " /><path fill="rgb(60,163,229)" stroke="rgb(60,163,229)" stroke-width="1" opacity="0.5019607843137255" d="M 348.5 222 L 349 224.5 L 348 224.5 L 348.5 222 Z " /><path fill="rgb(60,163,229)" stroke="rgb(60,163,229)" stroke-width="1" opacity="0.5019607843137255" d="M 29.5 225 L 30 227.5 L 29 227.5 L 29.5 225 Z " /><path fill="rgb(60,163,229)" stroke="rgb(60,163,229)" stroke-width="1" opacity="0.5019607843137255" d="M 347.5 226 L 348 229.5 L 346.5 233 L 346 230.5 L 347.5 226 Z " /><path fill="rgb(60,163,229)" stroke="rgb(60,163,229)" stroke-width="1" opacity="0.5019607843137255" d="M 30.5 229 L 31 231.5 L 30 231.5 L 30.5 229 Z " /><path fill="rgb(60,163,229)" stroke="rgb(60,163,229)" stroke-width="1" opacity="0.5019607843137255" d="M 31.5 233 L 36 246.5 L 35 246.5 L 31 235.5 L 31.5 233 Z " /><path fill="rgb(60,163,229)" stroke="rgb(60,163,229)" stroke-width="1" opacity="0.5019607843137255" d="M 345.5 234 L 346 236.5 L 341.5 248 L 341 246.5 L 345.5 234 Z " /><path fill="rgb(60,163,229)" stroke="rgb(60,163,229)" stroke-width="1" opacity="0.5019607843137255" d="M 36.5 248 Q 52.2 287.8 82.5 313 L 104 328.5 L 102.5 328 Q 84.6 317.9 71 303.5 L 49 275.5 L 37 252.5 L 36.5 248 Z " /><path fill="rgb(60,163,229)" stroke="rgb(60,163,229)" stroke-width="1" opacity="0.5019607843137255" d="M 340.5 249 L 341 250.5 L 328.5 275 L 328 273.5 L 340.5 249 Z " /><path fill="rgb(60,163,229)" stroke="rgb(60,163,229)" stroke-width="1" opacity="0.5019607843137255" d="M 273.5 328 L 275 328.5 L 254.5 339 L 254.5 338 L 273.5 328 Z " /><path fill="rgb(60,163,229)" stroke="rgb(60,163,229)" stroke-width="1" opacity="0.5019607843137255" d="M 105.5 329 L 111 332.5 L 109.5 332 Q 105.5 331.5 105.5 329 Z " /><path fill="rgb(60,163,229)" stroke="rgb(60,163,229)" stroke-width="1" opacity="0.5019607843137255" d="M 116.5 335 L 126 339.5 L 124.5 340 L 117.5 337 L 116.5 335 Z " /><path fill="rgb(60,163,229)" stroke="rgb(60,163,229)" stroke-width="1" opacity="0.5019607843137255" d="M 251.5 339 L 253 339.5 L 249.5 341 L 249.5 340 L 251.5 339 Z " /><path fill="rgb(60,163,229)" stroke="rgb(60,163,229)" stroke-width="1" opacity="0.5019607843137255" d="M 127.5 340 L 131 341.5 L 129.5 342 L 127.5 340 Z " /><path fill="rgb(60,163,229)" stroke="rgb(60,163,229)" stroke-width="1" opacity="0.5019607843137255" d="M 246.5 341 L 248 341.5 L 234.5 346 L 234.5 345 L 246.5 341 Z " /><path fill="rgb(60,163,229)" stroke="rgb(60,163,229)" stroke-width="1" opacity="0.5019607843137255" d="M 135.5 343 L 140 344.5 L 137.5 345 L 135.5 343 Z " /><path fill="rgb(60,163,229)" stroke="rgb(60,163,229)" stroke-width="1" opacity="0.5019607843137255" d="M 141.5 345 L 147 346.5 L 144.5 347 L 141.5 346 L 141.5 345 Z " /><path fill="rgb(60,163,229)" stroke="rgb(60,163,229)" stroke-width="1" opacity="0.5019607843137255" d="M 230.5 346 L 233 346.5 L 226.5 348 L 226.5 347 L 230.5 346 Z " /><path fill="rgb(60,163,229)" stroke="rgb(60,163,229)" stroke-width="1" opacity="0.5019607843137255" d="M 148.5 347 L 151 347.5 L 148.5 348 L 148.5 347 Z " /><path fill="rgb(60,163,229)" stroke="rgb(60,163,229)" stroke-width="1" opacity="0.5019607843137255" d="M 152.5 348 L 156 348.5 L 152.5 349 L 152.5 348 Z " /><path fill="rgb(60,163,229)" stroke="rgb(60,163,229)" stroke-width="1" opacity="0.5019607843137255" d="M 222.5 348 L 225 348.5 L 222.5 349 L 222.5 348 Z " /><path fill="rgb(60,163,229)" stroke="rgb(60,163,229)" stroke-width="1" opacity="0.5019607843137255" d="M 157.5 349 L 161 349.5 L 157.5 350 L 157.5 349 Z " /><path fill="rgb(60,163,229)" stroke="rgb(60,163,229)" stroke-width="1" opacity="0.5019607843137255" d="M 216.5 349 L 221 349.5 L 216.5 350 L 216.5 349 Z " /><path fill="rgb(60,163,229)" stroke="rgb(60,163,229)" stroke-width="1" opacity="0.5019607843137255" d="M 162.5 350 L 168 350.5 L 162.5 351 L 162.5 350 Z " /><path fill="rgb(60,163,229)" stroke="rgb(60,163,229)" stroke-width="1" opacity="0.5019607843137255" d="M 209.5 350 L 215 350.5 L 209.5 351 L 209.5 350 Z " /><path fill="rgb(60,163,229)" stroke="rgb(60,163,229)" stroke-width="1" opacity="0.5019607843137255" d="M 170.5 351 L 178 351.5 L 170.5 352 L 170.5 351 Z " /><path fill="rgb(60,163,229)" stroke="rgb(60,163,229)" stroke-width="1" opacity="0.5019607843137255" d="M 199.5 351 L 208 351.5 L 199.5 352 L 199.5 351 Z " /><path fill="rgb(60,163,229)" stroke="rgb(60,163,229)" stroke-width="1" opacity="0.5019607843137255" d="M 185.5 352 L 192 352.5 L 185.5 353 L 185.5 352 Z " /><path fill="rgb(0,0,0)" stroke="rgb(0,0,0)" stroke-width="1" opacity="0" d="M 0 0 L 512 0 L 512 512 L 0 512 L 0 0 Z M 174 25 L 173 26 L 165 26 L 154 28 L 128 36 Q 101 47 82 64 Q 59 83 44 111 L 32 139 L 27 159 L 26 173 L 25 174 L 25 205 Q 28 206 26 213 L 34 245 Q 47 279 71 304 Q 91 324 118 337 L 138 345 L 153 349 L 163 351 L 170 351 L 171 352 L 185 352 L 186 353 L 208 352 L 230 348 L 256 339 L 274 329 L 276 329 L 428 481 L 443 487 L 457 487 Q 466 485 473 480 Q 483 472 487 457 L 487 442 L 481 428 L 329 276 L 339 256 L 346 237 L 351 215 L 352 194 L 353 193 L 351 163 L 347 145 L 341 127 Q 328 95 306 74 Q 281 48 245 34 L 213 26 L 205 26 L 204 25 L 174 25 Z " /><path fill="rgb(62,162,229)" stroke="rgb(62,162,229)" stroke-width="1" opacity="0.996078431372549" d="M 188.5 25 L 189.5 26 L 206.5 26 L 207.5 27 L 224.5 29 L 252.5 38 Q 289.7 54.3 314 83.5 Q 334.4 107.1 345 140.5 L 351 168.5 L 352 198.5 L 351 199.5 L 351 208.5 L 350 209.5 L 349 221.5 L 338 255.5 Q 324.2 284.7 302.5 306 Q 280.2 328.2 248.5 341 Q 233.4 346.9 215.5 350 L 199.5 351 L 198.5 352 L 178.5 352 L 177.5 351 L 168.5 351 L 147.5 347 Q 127.7 341.8 111.5 333 Q 83.8 317.7 64 294.5 Q 46.6 274.4 36 247.5 L 28 219.5 L 27 207.5 L 26 206.5 L 26 190.5 L 25 188.5 L 26 187.5 L 26 170.5 L 27 169.5 L 28 157.5 L 32 141.5 L 39 122.5 Q 54.4 88.9 80.5 66 Q 102.3 46.3 132.5 35 L 157.5 28 L 169.5 27 L 170.5 26 L 187.5 26 L 188.5 25 Z M 183 68 L 182 69 L 173 69 L 162 71 L 146 76 Q 126 83 112 96 Q 95 110 84 129 Q 77 142 72 158 L 69 173 L 69 182 L 68 183 L 69 206 L 75 230 Q 84 253 100 271 Q 115 288 138 298 L 157 305 L 179 309 L 200 309 L 225 304 Q 250 296 268 280 Q 283 266 294 248 L 304 225 L 309 200 L 308 170 L 301 145 Q 292 123 278 108 Q 260 88 235 77 L 212 70 L 196 69 L 195 68 L 183 68 Z " /><path fill="rgb(62,162,229)" stroke="rgb(62,162,229)" stroke-width="1" opacity="0.996078431372549" d="M 166.5 210 Q 171.9 208.1 171 211.5 L 188.5 235 L 207.5 210 L 217.5 211 L 237.5 216 Q 248.8 219.7 256 227.5 Q 259 230.5 259 236.5 L 252.5 246 L 237.5 254 L 218.5 259 L 203.5 260 L 202.5 261 L 174.5 261 L 173.5 260 L 159.5 259 L 139.5 254 L 127.5 248 L 120 240.5 L 119 231.5 L 127.5 222 L 146.5 214 L 166.5 210 Z " /><path fill="rgb(222,237,243)" stroke="rgb(222,237,243)" stroke-width="1" opacity="1" d="M 177.5 69 L 199.5 69 Q 201.3 71.8 207.5 70 L 230.5 76 Q 259.9 87.6 279 109.5 Q 296.6 129.4 305 158.5 L 308 174.5 L 308 202.5 L 304 222.5 L 294 246.5 Q 282.7 266.7 265.5 281 Q 247.7 296.2 222.5 304 L 202.5 308 L 174.5 308 Q 125.4 299.6 99 268.5 Q 82.6 250.4 74 224.5 L 69 199.5 L 69 177.5 L 74 152.5 L 83 131.5 Q 94.9 109.9 113.5 95 L 139.5 79 L 156.5 73 L 177.5 69 Z M 182 102 Q 169 105 161 112 Q 149 122 146 140 L 147 158 L 152 175 Q 159 194 170 209 L 169 210 L 162 210 L 148 213 L 127 222 L 118 233 Q 117 239 120 242 L 130 250 L 144 256 L 162 260 L 180 261 L 181 262 L 210 261 L 227 258 Q 243 255 254 246 L 259 239 Q 260 230 256 227 Q 248 219 237 215 L 222 211 L 210 210 L 208 209 L 223 181 L 229 164 L 231 154 Q 233 129 222 118 Q 215 108 204 104 Q 195 100 182 102 Z " /><path fill="rgb(222,237,243)" stroke="rgb(222,237,243)" stroke-width="1" opacity="1" d="M 186.5 129 Q 196.9 129.1 201 135.5 L 204 144.5 L 202 151.5 L 196.5 157 Q 192.8 160.3 184.5 159 L 176 152.5 Q 172.7 148.8 174 140.5 L 179.5 132 L 186.5 129 Z " /><path fill="rgb(243,88,88)" stroke="rgb(243,88,88)" stroke-width="1" opacity="1" d="M 182.5 102 L 194.5 102 L 205.5 105 L 221 116.5 Q 227.2 123.3 230 133.5 L 231 151.5 L 229 162.5 L 222 182.5 Q 208.5 211.2 190 234 L 185 230.5 Q 167.3 208.7 155 181.5 L 148 160.5 L 146 142.5 L 148 131.5 L 152 122.5 L 163.5 110 Q 170.9 103.9 182.5 102 Z M 186 129 L 180 132 L 174 140 L 175 152 Q 178 157 185 159 Q 195 161 199 156 L 204 147 Q 205 140 202 137 Q 198 128 186 129 Z " /><path fill="rgb(119,186,230)" stroke="rgb(119,186,230)" stroke-width="1" opacity="0.9921568627450981" d="M 182.5 68 L 195 68.5 L 182.5 69 L 182.5 68 Z " /><path fill="rgb(119,186,230)" stroke="rgb(119,186,230)" stroke-width="1" opacity="0.9921568627450981" d="M 116.5 92 L 115.5 94 L 116.5 92 Z " /><path fill="rgb(119,186,230)" stroke="rgb(119,186,230)" stroke-width="1" opacity="0.9921568627450981" d="M 263.5 94 L 264.5 96 L 263.5 94 Z " /><path fill="rgb(119,186,230)" stroke="rgb(119,186,230)" stroke-width="1" opacity="0.9921568627450981" d="M 111.5 96 L 110.5 98 L 111.5 96 Z " /><path fill="rgb(119,186,230)" stroke="rgb(119,186,230)" stroke-width="1" opacity="0.9921568627450981" d="M 270.5 100 L 277.5 108 L 270.5 100 Z " /><path fill="rgb(119,186,230)" stroke="rgb(119,186,230)" stroke-width="1" opacity="0.9921568627450981" d="M 97.5 110 L 96.5 112 L 97.5 110 Z " /><path fill="rgb(119,186,230)" stroke="rgb(119,186,230)" stroke-width="1" opacity="0.9921568627450981" d="M 281.5 112 L 282.5 114 L 281.5 112 Z " /><path fill="rgb(119,186,230)" stroke="rgb(119,186,230)" stroke-width="1" opacity="0.9921568627450981" d="M 93.5 115 L 92.5 117 L 93.5 115 Z " /><path fill="rgb(119,186,230)" stroke="rgb(119,186,230)" stroke-width="1" opacity="0.9921568627450981" d="M 287.5 120 L 288.5 122 L 287.5 120 Z " /><path fill="rgb(119,186,230)" stroke="rgb(119,186,230)" stroke-width="1" opacity="0.9921568627450981" d="M 307.5 169 L 308 171.5 L 307 171.5 L 307.5 169 Z " /><path fill="rgb(119,186,230)" stroke="rgb(119,186,230)" stroke-width="1" opacity="0.9921568627450981" d="M 308.5 178 L 309 181.5 L 308 181.5 L 308.5 178 Z " /><path fill="rgb(119,186,230)" stroke="rgb(119,186,230)" stroke-width="1" opacity="0.9921568627450981" d="M 68.5 182 L 69 194.5 L 68 194.5 L 68.5 182 Z " /><path fill="rgb(119,186,230)" stroke="rgb(119,186,230)" stroke-width="1" opacity="0.9921568627450981" d="M 308.5 196 L 309 199.5 L 308 199.5 L 308.5 196 Z " /><path fill="rgb(119,186,230)" stroke="rgb(119,186,230)" stroke-width="1" opacity="0.9921568627450981" d="M 69.5 203 L 70 205.5 L 69 205.5 L 69.5 203 Z " /><path fill="rgb(119,186,230)" stroke="rgb(119,186,230)" stroke-width="1" opacity="0.9921568627450981" d="M 163.5 210 L 166 210.5 L 163.5 211 L 163.5 210 Z " /><path fill="rgb(119,186,230)" stroke="rgb(119,186,230)" stroke-width="1" opacity="0.9921568627450981" d="M 203.5 215 L 202.5 217 L 203.5 215 Z " /><path fill="rgb(119,186,230)" stroke="rgb(119,186,230)" stroke-width="1" opacity="0.9921568627450981" d="M 174.5 216 L 175.5 218 L 174.5 216 Z " /><path fill="rgb(119,186,230)" stroke="rgb(119,186,230)" stroke-width="1" opacity="0.9921568627450981" d="M 179.5 223 L 180.5 225 L 179.5 223 Z " /><path fill="rgb(119,186,230)" stroke="rgb(119,186,230)" stroke-width="1" opacity="0.9921568627450981" d="M 124.5 224 L 121.5 228 L 124.5 224 Z " /><path fill="rgb(119,186,230)" stroke="rgb(119,186,230)" stroke-width="1" opacity="0.9921568627450981" d="M 182.5 227 L 183.5 229 L 182.5 227 Z " /><path fill="rgb(119,186,230)" stroke="rgb(119,186,230)" stroke-width="1" opacity="0.9921568627450981" d="M 192.5 230 L 191.5 232 L 192.5 230 Z " /><path fill="rgb(119,186,230)" stroke="rgb(119,186,230)" stroke-width="1" opacity="0.9921568627450981" d="M 186.5 232 L 187.5 234 L 186.5 232 Z " /><path fill="rgb(119,186,230)" stroke="rgb(119,186,230)" stroke-width="1" opacity="0.9921568627450981" d="M 118.5 234 L 119 236.5 L 118 236.5 L 118.5 234 Z " /><path fill="rgb(119,186,230)" stroke="rgb(119,186,230)" stroke-width="1" opacity="0.9921568627450981" d="M 121.5 242 L 125.5 247 L 121.5 242 Z " /><path fill="rgb(119,186,230)" stroke="rgb(119,186,230)" stroke-width="1" opacity="0.9921568627450981" d="M 251.5 246 L 250.5 248 L 251.5 246 Z " /><path fill="rgb(119,186,230)" stroke="rgb(119,186,230)" stroke-width="1" opacity="0.9921568627450981" d="M 212.5 259 L 215 259.5 L 212.5 260 L 212.5 259 Z " /><path fill="rgb(119,186,230)" stroke="rgb(119,186,230)" stroke-width="1" opacity="0.9921568627450981" d="M 171.5 260 L 174 260.5 L 171.5 261 L 171.5 260 Z " /><path fill="rgb(119,186,230)" stroke="rgb(119,186,230)" stroke-width="1" opacity="0.9921568627450981" d="M 203.5 260 L 206 260.5 L 203.5 261 L 203.5 260 Z " /><path fill="rgb(119,186,230)" stroke="rgb(119,186,230)" stroke-width="1" opacity="0.9921568627450981" d="M 283.5 262 L 282.5 264 L 283.5 262 Z " /><path fill="rgb(119,186,230)" stroke="rgb(119,186,230)" stroke-width="1" opacity="0.9921568627450981" d="M 94.5 263 L 95.5 265 L 94.5 263 Z " /><path fill="rgb(119,186,230)" stroke="rgb(119,186,230)" stroke-width="1" opacity="0.9921568627450981" d="M 279.5 267 L 276.5 271 L 279.5 267 Z " /><path fill="rgb(119,186,230)" stroke="rgb(119,186,230)" stroke-width="1" opacity="0.9921568627450981" d="M 100.5 270 L 107.5 278 L 100.5 270 Z " /><path fill="rgb(119,186,230)" stroke="rgb(119,186,230)" stroke-width="1" opacity="0.9921568627450981" d="M 270.5 276 L 267.5 280 L 270.5 276 Z " /><path fill="rgb(119,186,230)" stroke="rgb(119,186,230)" stroke-width="1" opacity="0.9921568627450981" d="M 112.5 281 L 113.5 283 L 112.5 281 Z " /><path fill="rgb(119,186,230)" stroke="rgb(119,186,230)" stroke-width="1" opacity="0.9921568627450981" d="M 120.5 287 L 121.5 289 L 120.5 287 Z " /><path fill="rgb(119,186,230)" stroke="rgb(119,186,230)" stroke-width="1" opacity="0.9921568627450981" d="M 315.5 291 L 314.5 293 L 315.5 291 Z " /><path fill="rgb(119,186,230)" stroke="rgb(119,186,230)" stroke-width="1" opacity="0.9921568627450981" d="M 309.5 298 L 306.5 302 L 309.5 298 Z " /><path fill="rgb(119,186,230)" stroke="rgb(119,186,230)" stroke-width="1" opacity="0.9921568627450981" d="M 301.5 306 L 298.5 310 L 301.5 306 Z " /><path fill="rgb(119,186,230)" stroke="rgb(119,186,230)" stroke-width="1" opacity="0.9921568627450981" d="M 169.5 307 L 172 307.5 L 169.5 308 L 169.5 307 Z " /><path fill="rgb(119,186,230)" stroke="rgb(119,186,230)" stroke-width="1" opacity="0.9921568627450981" d="M 178.5 308 L 182 308.5 L 178.5 309 L 178.5 308 Z " /><path fill="rgb(119,186,230)" stroke="rgb(119,186,230)" stroke-width="1" opacity="0.9921568627450981" d="M 196.5 308 L 200 308.5 L 196.5 309 L 196.5 308 Z " /><path fill="rgb(119,186,230)" stroke="rgb(119,186,230)" stroke-width="1" opacity="0.9921568627450981" d="M 292.5 314 L 291.5 316 L 292.5 314 Z " /><path fill="rgb(171,212,237)" stroke="rgb(171,212,237)" stroke-width="1" opacity="1" d="M 174.5 69 L 177 69.5 L 174.5 70 L 174.5 69 Z " /><path fill="rgb(171,212,237)" stroke="rgb(171,212,237)" stroke-width="1" opacity="1" d="M 200.5 69 L 203 69.5 L 200.5 70 L 200.5 69 Z " /><path fill="rgb(171,212,237)" stroke="rgb(171,212,237)" stroke-width="1" opacity="1" d="M 260.5 92 L 261.5 94 L 260.5 92 Z " /><path fill="rgb(171,212,237)" stroke="rgb(171,212,237)" stroke-width="1" opacity="1" d="M 265.5 96 L 267.5 99 L 265.5 96 Z " /><path fill="rgb(171,212,237)" stroke="rgb(171,212,237)" stroke-width="1" opacity="1" d="M 109.5 98 L 98.5 110 L 109.5 98 Z " /><path fill="rgb(171,212,237)" stroke="rgb(171,212,237)" stroke-width="1" opacity="1" d="M 279.5 110 L 280.5 112 L 279.5 110 Z " /><path fill="rgb(171,212,237)" stroke="rgb(171,212,237)" stroke-width="1" opacity="1" d="M 283.5 115 L 284.5 117 L 283.5 115 Z " /><path fill="rgb(171,212,237)" stroke="rgb(171,212,237)" stroke-width="1" opacity="1" d="M 69.5 174 L 70 176.5 L 69 176.5 L 69.5 174 Z " /><path fill="rgb(171,212,237)" stroke="rgb(171,212,237)" stroke-width="1" opacity="1" d="M 308.5 182 L 309 195.5 L 308 195.5 L 308.5 182 Z " /><path fill="rgb(171,212,237)" stroke="rgb(171,212,237)" stroke-width="1" opacity="1" d="M 69.5 200 L 70 202.5 L 69 202.5 L 69.5 200 Z " /><path fill="rgb(171,212,237)" stroke="rgb(171,212,237)" stroke-width="1" opacity="1" d="M 307.5 203 L 308 205.5 L 307 205.5 L 307.5 203 Z " /><path fill="rgb(171,212,237)" stroke="rgb(171,212,237)" stroke-width="1" opacity="1" d="M 126.5 222 L 125.5 224 L 126.5 222 Z " /><path fill="rgb(171,212,237)" stroke="rgb(171,212,237)" stroke-width="1" opacity="1" d="M 253.5 224 L 255.5 227 L 253.5 224 Z " /><path fill="rgb(171,212,237)" stroke="rgb(171,212,237)" stroke-width="1" opacity="1" d="M 255.5 243 L 253.5 246 L 255.5 243 Z " /><path fill="rgb(171,212,237)" stroke="rgb(171,212,237)" stroke-width="1" opacity="1" d="M 285.5 259 L 284.5 261 L 285.5 259 Z " /><path fill="rgb(171,212,237)" stroke="rgb(171,212,237)" stroke-width="1" opacity="1" d="M 92.5 260 L 93.5 262 L 92.5 260 Z " /><path fill="rgb(171,212,237)" stroke="rgb(171,212,237)" stroke-width="1" opacity="1" d="M 168.5 260 L 171 260.5 L 168.5 261 L 168.5 260 Z " /><path fill="rgb(171,212,237)" stroke="rgb(171,212,237)" stroke-width="1" opacity="1" d="M 206.5 260 L 210 260.5 L 206.5 261 L 206.5 260 Z " /><path fill="rgb(171,212,237)" stroke="rgb(171,212,237)" stroke-width="1" opacity="1" d="M 180.5 261 L 197 261.5 L 180.5 262 L 180.5 261 Z " /><path fill="rgb(171,212,237)" stroke="rgb(171,212,237)" stroke-width="1" opacity="1" d="M 96.5 265 L 98.5 268 L 96.5 265 Z " /><path fill="rgb(171,212,237)" stroke="rgb(171,212,237)" stroke-width="1" opacity="1" d="M 275.5 271 L 271.5 276 L 275.5 271 Z " /><path fill="rgb(171,212,237)" stroke="rgb(171,212,237)" stroke-width="1" opacity="1" d="M 109.5 278 L 111.5 281 L 109.5 278 Z " /><path fill="rgb(171,212,237)" stroke="rgb(171,212,237)" stroke-width="1" opacity="1" d="M 264.5 281 L 263.5 283 L 264.5 281 Z " /><path fill="rgb(171,212,237)" stroke="rgb(171,212,237)" stroke-width="1" opacity="1" d="M 115.5 283 L 116.5 285 L 115.5 283 Z " /><path fill="rgb(171,212,237)" stroke="rgb(171,212,237)" stroke-width="1" opacity="1" d="M 260.5 284 L 259.5 286 L 260.5 284 Z " /><path fill="rgb(171,212,237)" stroke="rgb(171,212,237)" stroke-width="1" opacity="1" d="M 203.5 307 L 206 307.5 L 203.5 308 L 203.5 307 Z " /><path fill="rgb(171,212,237)" stroke="rgb(171,212,237)" stroke-width="1" opacity="1" d="M 182.5 308 L 196 308.5 L 182.5 309 L 182.5 308 Z " /><path fill="rgb(233,125,52)" stroke="rgb(233,125,52)" stroke-width="1" opacity="0.9254901960784314" d="M 320.5 285 L 319.5 287 L 320.5 285 Z " /><path fill="rgb(233,125,52)" stroke="rgb(233,125,52)" stroke-width="1" opacity="0.9254901960784314" d="M 317.5 289 L 316.5 291 L 317.5 289 Z " /><path fill="rgb(233,125,52)" stroke="rgb(233,125,52)" stroke-width="1" opacity="0.9254901960784314" d="M 312.5 295 L 310.5 298 L 312.5 295 Z " /><path fill="rgb(233,125,52)" stroke="rgb(233,125,52)" stroke-width="1" opacity="0.9254901960784314" d="M 297.5 310 L 295.5 313 L 297.5 310 Z " /><path fill="rgb(233,125,52)" stroke="rgb(233,125,52)" stroke-width="1" opacity="0.9254901960784314" d="M 290.5 316 L 289.5 318 L 290.5 316 Z " /><path fill="rgb(233,125,52)" stroke="rgb(233,125,52)" stroke-width="1" opacity="0.9254901960784314" d="M 286.5 319 L 285.5 321 L 286.5 319 Z " /><path fill="rgb(233,125,52)" stroke="rgb(233,125,52)" stroke-width="1" opacity="0.9254901960784314" d="M 357.5 336 L 361.5 337 L 379 354.5 Q 380.5 362.5 375.5 364 L 369.5 364 L 352 346.5 L 351 342.5 L 353 338 L 357.5 336 Z " /><path fill="rgb(233,125,52)" stroke="rgb(233,125,52)" stroke-width="1" opacity="0.9254901960784314" d="M 393.5 374 L 398.5 374 L 449 424.5 L 450 429.5 L 446.5 434 L 441.5 435 L 389 383.5 Q 388 377 391.5 375 L 393.5 374 Z " /><path fill="rgb(251,136,58)" stroke="rgb(251,136,58)" stroke-width="1" opacity="0.9921568627450981" d="M 214.5 110 L 215.5 112 L 214.5 110 Z " /><path fill="rgb(251,136,58)" stroke="rgb(251,136,58)" stroke-width="1" opacity="0.9921568627450981" d="M 160.5 112 L 156.5 117 L 160.5 112 Z " /><path fill="rgb(251,136,58)" stroke="rgb(251,136,58)" stroke-width="1" opacity="0.9921568627450981" d="M 146.5 139 L 147 141.5 L 146 141.5 L 146.5 139 Z " /><path fill="rgb(251,136,58)" stroke="rgb(251,136,58)" stroke-width="1" opacity="0.9921568627450981" d="M 146.5 148 L 147 150.5 L 146 150.5 L 146.5 148 Z " /><path fill="rgb(251,136,58)" stroke="rgb(251,136,58)" stroke-width="1" opacity="0.9921568627450981" d="M 200.5 153 L 198.5 156 L 200.5 153 Z " /><path fill="rgb(251,136,58)" stroke="rgb(251,136,58)" stroke-width="1" opacity="0.9921568627450981" d="M 327 275 L 328.5 275 L 481 427.5 L 487 441.5 L 487 456.5 Q 483.8 471.3 473.5 479 L 460.5 486 Q 453.4 488.4 442.5 487 L 427.5 481 L 275 328.5 Q 274.3 326.3 276.5 327 Q 297.3 313.8 313 295.5 L 327 275 Z M 358 336 L 353 338 L 351 343 L 352 347 L 370 364 L 376 364 Q 381 362 379 355 L 362 337 L 358 336 Z M 394 374 L 392 375 Q 388 377 389 384 L 442 435 L 447 434 L 450 430 L 449 425 L 399 374 L 394 374 Z " /></svg>